HIERARCHY
ROOT mixamorig:Hips
{
	OFFSET -0.000008 104.274872 1.554316
	CHANNELS 6 Xposition Yposition Zposition Xrotation Yrotation Zrotation
	JOINT mixamorig:Spine
	{
		OFFSET -0.000005 10.181595 0.131519
		CHANNELS 6 Xposition Yposition Zposition Xrotation Yrotation Zrotation
		JOINT mixamorig:Spine1
		{
			OFFSET -0.000000 9.893959 -1.470707
			CHANNELS 6 Xposition Yposition Zposition Xrotation Yrotation Zrotation
			JOINT mixamorig:Spine2
			{
				OFFSET -0.000000 9.220757 -1.370641
				CHANNELS 6 Xposition Yposition Zposition Xrotation Yrotation Zrotation
				JOINT mixamorig:Neck
				{
					OFFSET 0.000001 16.740417 -2.049036
					CHANNELS 6 Xposition Yposition Zposition Xrotation Yrotation Zrotation
					JOINT mixamorig:Head
					{
						OFFSET 0.000000 9.617874 1.685006
						CHANNELS 6 Xposition Yposition Zposition Xrotation Yrotation Zrotation
						JOINT mixamorig:HeadTop_End
						{
							OFFSET 0.000002 22.037354 7.501101
							CHANNELS 6 Xposition Yposition Zposition Xrotation Yrotation Zrotation
							End Site
							{
								OFFSET 0.000168 2310.654297 -282.823242
							}
						}
					}
				}
				JOINT mixamorig:RightShoulder
				{
					OFFSET -4.569970 11.014908 -2.160885
					CHANNELS 6 Xposition Yposition Zposition Xrotation Yrotation Zrotation
					JOINT mixamorig:RightArm
					{
						OFFSET -10.592851 -0.524811 -2.232101
						CHANNELS 6 Xposition Yposition Zposition Xrotation Yrotation Zrotation
						JOINT mixamorig:RightForeArm
						{
							OFFSET -27.841511 0.000031 -0.000004
							CHANNELS 6 Xposition Yposition Zposition Xrotation Yrotation Zrotation
							JOINT mixamorig:RightHand
							{
								OFFSET -28.328831 -0.000015 0.000015
								CHANNELS 6 Xposition Yposition Zposition Xrotation Yrotation Zrotation
								JOINT mixamorig:RightHandThumb1
								{
									OFFSET -2.464806 -1.573990 2.681852
									CHANNELS 6 Xposition Yposition Zposition Xrotation Yrotation Zrotation
									JOINT mixamorig:RightHandThumb2
									{
										OFFSET -3.215179 -1.872803 1.924282
										CHANNELS 6 Xposition Yposition Zposition Xrotation Yrotation Zrotation
										JOINT mixamorig:RightHandThumb3
										{
											OFFSET -2.654831 -1.527969 1.512609
											CHANNELS 6 Xposition Yposition Zposition Xrotation Yrotation Zrotation
											JOINT mixamorig:RightHandThumb4
											{
												OFFSET -2.018814 -1.152008 1.108052
												CHANNELS 6 Xposition Yposition Zposition Xrotation Yrotation Zrotation
												End Site
												{
													OFFSET -188.809540 -114.533607 132.431396
												}
											}
										}
									}
								}
								JOINT mixamorig:RightHandIndex1
								{
									OFFSET -9.108284 -0.517868 2.259835
									CHANNELS 6 Xposition Yposition Zposition Xrotation Yrotation Zrotation
									JOINT mixamorig:RightHandIndex2
									{
										OFFSET -3.699989 0.000000 0.001215
										CHANNELS 6 Xposition Yposition Zposition Xrotation Yrotation Zrotation
										JOINT mixamorig:RightHandIndex3
										{
											OFFSET -2.850006 0.000031 -0.000522
											CHANNELS 6 Xposition Yposition Zposition Xrotation Yrotation Zrotation
											JOINT mixamorig:RightHandIndex4
											{
												OFFSET -2.772186 -0.000015 -0.000020
												CHANNELS 6 Xposition Yposition Zposition Xrotation Yrotation Zrotation
												End Site
												{
													OFFSET -277.218445 0.000000 -0.050231
												}
											}
										}
									}
								}
								JOINT mixamorig:RightHandMiddle1
								{
									OFFSET -9.532516 -0.000031 -0.000023
									CHANNELS 6 Xposition Yposition Zposition Xrotation Yrotation Zrotation
									JOINT mixamorig:RightHandMiddle2
									{
										OFFSET -3.700005 -0.000015 0.003713
										CHANNELS 6 Xposition Yposition Zposition Xrotation Yrotation Zrotation
										JOINT mixamorig:RightHandMiddle3
										{
											OFFSET -2.949974 0.000015 -0.002054
											CHANNELS 6 Xposition Yposition Zposition Xrotation Yrotation Zrotation
											JOINT mixamorig:RightHandMiddle4
											{
												OFFSET -2.946640 0.000000 -0.000156
												CHANNELS 6 Xposition Yposition Zposition Xrotation Yrotation Zrotation
												End Site
												{
													OFFSET -294.664337 0.000000 -0.113670
												}
											}
										}
									}
								}
								JOINT mixamorig:RightHandRing1
								{
									OFFSET -9.103600 -0.043076 -1.865134
									CHANNELS 6 Xposition Yposition Zposition Xrotation Yrotation Zrotation
									JOINT mixamorig:RightHandRing2
									{
										OFFSET -3.379288 0.000000 -0.001055
										CHANNELS 6 Xposition Yposition Zposition Xrotation Yrotation Zrotation
										JOINT mixamorig:RightHandRing3
										{
											OFFSET -2.889687 -0.000015 0.000379
											CHANNELS 6 Xposition Yposition Zposition Xrotation Yrotation Zrotation
											JOINT mixamorig:RightHandRing4
											{
												OFFSET -2.638809 -0.000015 0.000941
												CHANNELS 6 Xposition Yposition Zposition Xrotation Yrotation Zrotation
												End Site
												{
													OFFSET -263.880371 0.000000 0.516020
												}
											}
										}
									}
								}
								JOINT mixamorig:RightHandPinky1
								{
									OFFSET -8.076683 -0.486710 -3.806280
									CHANNELS 6 Xposition Yposition Zposition Xrotation Yrotation Zrotation
									JOINT mixamorig:RightHandPinky2
									{
										OFFSET -3.600014 -0.000015 -0.003747
										CHANNELS 6 Xposition Yposition Zposition Xrotation Yrotation Zrotation
										JOINT mixamorig:RightHandPinky3
										{
											OFFSET -2.099983 0.000000 -0.005739
											CHANNELS 6 Xposition Yposition Zposition Xrotation Yrotation Zrotation
											JOINT mixamorig:RightHandPinky4
											{
												OFFSET -2.115768 -0.000031 -0.003680
												CHANNELS 6 Xposition Yposition Zposition Xrotation Yrotation Zrotation
												End Site
												{
													OFFSET -211.577087 0.000000 -0.350686
												}
											}
										}
									}
								}
							}
						}
					}
				}
				JOINT mixamorig:LeftShoulder
				{
					OFFSET 4.570447 11.014725 -2.160855
					CHANNELS 6 Xposition Yposition Zposition Xrotation Yrotation Zrotation
					JOINT mixamorig:LeftArm
					{
						OFFSET 10.592371 -0.524597 -2.232119
						CHANNELS 6 Xposition Yposition Zposition Xrotation Yrotation Zrotation
						JOINT mixamorig:LeftForeArm
						{
							OFFSET 27.841532 -0.000031 0.000026
							CHANNELS 6 Xposition Yposition Zposition Xrotation Yrotation Zrotation
							JOINT mixamorig:LeftHand
							{
								OFFSET 28.328846 -0.000061 0.000022
								CHANNELS 6 Xposition Yposition Zposition Xrotation Yrotation Zrotation
								JOINT mixamorig:LeftHandThumb1
								{
									OFFSET 2.466141 -1.576172 2.681732
									CHANNELS 6 Xposition Yposition Zposition Xrotation Yrotation Zrotation
									JOINT mixamorig:LeftHandThumb2
									{
										OFFSET 3.217812 -1.872070 1.916482
										CHANNELS 6 Xposition Yposition Zposition Xrotation Yrotation Zrotation
										JOINT mixamorig:LeftHandThumb3
										{
											OFFSET 2.656029 -1.528778 1.514513
											CHANNELS 6 Xposition Yposition Zposition Xrotation Yrotation Zrotation
											JOINT mixamorig:LeftHandThumb4
											{
												OFFSET 2.020889 -1.154053 1.115139
												CHANNELS 6 Xposition Yposition Zposition Xrotation Yrotation Zrotation
												End Site
												{
													OFFSET 190.885437 -115.081749 130.048782
												}
											}
										}
									}
								}
								JOINT mixamorig:LeftHandIndex1
								{
									OFFSET 9.109314 -0.518021 2.259871
									CHANNELS 6 Xposition Yposition Zposition Xrotation Yrotation Zrotation
									JOINT mixamorig:LeftHandIndex2
									{
										OFFSET 3.699989 0.000000 -0.000322
										CHANNELS 6 Xposition Yposition Zposition Xrotation Yrotation Zrotation
										JOINT mixamorig:LeftHandIndex3
										{
											OFFSET 2.850006 0.000000 0.000352
											CHANNELS 6 Xposition Yposition Zposition Xrotation Yrotation Zrotation
											JOINT mixamorig:LeftHandIndex4
											{
												OFFSET 2.774864 -0.000031 -0.000027
												CHANNELS 6 Xposition Yposition Zposition Xrotation Yrotation Zrotation
												End Site
												{
													OFFSET 277.486267 0.000000 -0.009857
												}
											}
										}
									}
								}
								JOINT mixamorig:LeftHandMiddle1
								{
									OFFSET 9.533394 0.000061 0.000044
									CHANNELS 6 Xposition Yposition Zposition Xrotation Yrotation Zrotation
									JOINT mixamorig:LeftHandMiddle2
									{
										OFFSET 3.699989 -0.000015 -0.000231
										CHANNELS 6 Xposition Yposition Zposition Xrotation Yrotation Zrotation
										JOINT mixamorig:LeftHandMiddle3
										{
											OFFSET 2.949997 -0.000015 -0.000059
											CHANNELS 6 Xposition Yposition Zposition Xrotation Yrotation Zrotation
											JOINT mixamorig:LeftHandMiddle4
											{
												OFFSET 2.952896 0.000031 0.000063
												CHANNELS 6 Xposition Yposition Zposition Xrotation Yrotation Zrotation
												End Site
												{
													OFFSET 295.289337 0.000000 0.022810
												}
											}
										}
									}
								}
								JOINT mixamorig:LeftHandRing1
								{
									OFFSET 9.104523 -0.042999 -1.865074
									CHANNELS 6 Xposition Yposition Zposition Xrotation Yrotation Zrotation
									JOINT mixamorig:LeftHandRing2
									{
										OFFSET 3.150009 -0.000031 0.000043
										CHANNELS 6 Xposition Yposition Zposition Xrotation Yrotation Zrotation
										JOINT mixamorig:LeftHandRing3
										{
											OFFSET 2.949982 -0.000015 0.000040
											CHANNELS 6 Xposition Yposition Zposition Xrotation Yrotation Zrotation
											JOINT mixamorig:LeftHandRing4
											{
												OFFSET 2.644348 0.000000 0.000057
												CHANNELS 6 Xposition Yposition Zposition Xrotation Yrotation Zrotation
												End Site
												{
													OFFSET 264.434631 0.000000 0.012105
												}
											}
										}
									}
								}
								JOINT mixamorig:LeftHandPinky1
								{
									OFFSET 8.077789 -0.486847 -3.806259
									CHANNELS 6 Xposition Yposition Zposition Xrotation Yrotation Zrotation
									JOINT mixamorig:LeftHandPinky2
									{
										OFFSET 3.599953 0.000031 0.014727
										CHANNELS 6 Xposition Yposition Zposition Xrotation Yrotation Zrotation
										JOINT mixamorig:LeftHandPinky3
										{
											OFFSET 2.100021 0.000015 0.007705
											CHANNELS 6 Xposition Yposition Zposition Xrotation Yrotation Zrotation
											JOINT mixamorig:LeftHandPinky4
											{
												OFFSET 2.125504 0.000031 0.007517
												CHANNELS 6 Xposition Yposition Zposition Xrotation Yrotation Zrotation
												End Site
												{
													OFFSET 212.550781 0.000000 0.625752
												}
											}
										}
									}
								}
							}
						}
					}
				}
			}
		}
	}
	JOINT mixamorig:RightUpLeg
	{
		OFFSET -8.207787 -6.751648 -1.599560
		CHANNELS 6 Xposition Yposition Zposition Xrotation Yrotation Zrotation
		JOINT mixamorig:RightLeg
		{
			OFFSET -0.000002 -44.370117 0.345942
			CHANNELS 6 Xposition Yposition Zposition Xrotation Yrotation Zrotation
			JOINT mixamorig:RightFoot
			{
				OFFSET 0.000003 -44.423679 -3.043532
				CHANNELS 6 Xposition Yposition Zposition Xrotation Yrotation Zrotation
				JOINT mixamorig:RightToeBase
				{
					OFFSET -0.000002 -8.728671 10.710558
					CHANNELS 6 Xposition Yposition Zposition Xrotation Yrotation Zrotation
					JOINT mixamorig:RightToe_End
					{
						OFFSET -0.000001 -0.000679 9.278119
						CHANNELS 6 Xposition Yposition Zposition Xrotation Yrotation Zrotation
						End Site
						{
							OFFSET 0.000000 -0.067690 927.812134
						}
					}
				}
			}
		}
	}
	JOINT mixamorig:LeftUpLeg
	{
		OFFSET 8.207793 -6.751686 -1.599556
		CHANNELS 6 Xposition Yposition Zposition Xrotation Yrotation Zrotation
		JOINT mixamorig:LeftLeg
		{
			OFFSET -0.000004 -44.370014 0.346954
			CHANNELS 6 Xposition Yposition Zposition Xrotation Yrotation Zrotation
			JOINT mixamorig:LeftFoot
			{
				OFFSET -0.000001 -44.423672 -3.044401
				CHANNELS 6 Xposition Yposition Zposition Xrotation Yrotation Zrotation
				JOINT mixamorig:LeftToeBase
				{
					OFFSET -0.000002 -8.728669 10.710558
					CHANNELS 6 Xposition Yposition Zposition Xrotation Yrotation Zrotation
					JOINT mixamorig:LeftToe_End
					{
						OFFSET -0.000003 -0.000679 9.278133
						CHANNELS 6 Xposition Yposition Zposition Xrotation Yrotation Zrotation
						End Site
						{
							OFFSET 0.000000 -0.068021 927.813477
						}
					}
				}
			}
		}
	}
}
MOTION
Frames: 3
Frame Time: 0.033333
0.000006 104.270477 1.554256 0.000010 0.000003 -0.000113 -0.000005 10.181587 0.131522 0.000001 -0.000003 0.000084 -0.000000 9.893967 -1.470711 0.000001 0.000000 -0.000000 -0.000000 9.220802 -1.370642 0.000000 -0.000000 -0.000000 0.000001 16.740433 -2.049030 0.000000 -0.000000 -0.000000 0.000000 9.617859 1.685014 0.000000 0.000000 0.000000 0.000002 22.037384 7.501101 0.000000 -0.000000 0.000000 -4.569968 11.014880 -2.160881 0.000008 0.000001 -0.000038 -10.592880 -0.524749 -2.231932 69.860179 25.815605 -18.186482 -27.841522 0.000003 0.000539 -53.925317 115.101118 77.323998 -28.328825 0.000004 0.000025 -0.000324 -0.000044 0.000006 -2.464419 -1.573781 2.682332 -46.852239 -161.964262 -7.446646 -3.215272 -1.872557 1.924626 152.252293 32.732237 13.585891 -2.654952 -1.527884 1.513058 146.544796 27.185000 -35.259591 -2.018819 -1.151986 1.108073 -0.000006 -0.000001 0.000002 -9.108398 -0.517549 2.260117 100.527366 15.576393 -18.742041 -3.700067 0.000315 0.001521 97.966421 12.896886 -14.780485 -2.850067 0.000366 -0.000251 97.547334 10.427914 -11.889718 -2.772163 -0.000015 -0.000020 -0.000001 0.000000 -0.000000 -9.532618 0.000270 0.000258 96.772579 17.261176 -19.554808 -3.700075 0.000329 0.003988 96.558398 12.359602 -13.741891 -2.950071 0.000336 -0.001796 99.103408 11.333725 -13.269843 -2.946630 0.000015 -0.000159 -0.000000 0.000000 -0.000001 -9.103716 -0.042764 -1.864845 95.776615 20.147082 -22.186772 -3.379335 0.000324 -0.000799 96.490144 9.913224 -11.117333 -2.889757 0.000348 0.000674 102.900980 6.810298 -8.597863 -2.638810 -0.000010 0.000940 -0.000000 0.000000 0.000000 -8.076784 -0.486405 -3.806016 88.011693 21.832271 -20.952903 -3.600048 0.000278 -0.003523 89.923504 9.885169 -9.511011 -2.100017 0.000313 -0.005487 93.033330 4.735362 -4.764384 -2.115764 -0.000040 -0.003678 -0.000001 -0.000001 0.000001 4.570446 11.014691 -2.160851 -0.000018 0.000010 -0.000021 10.592489 -0.524542 -2.232383 53.681042 -58.541135 31.669524 27.841730 -0.000077 -0.000095 56.753551 -109.009963 74.283245 28.328829 -0.000012 0.000028 0.000022 -0.000087 0.000001 2.466081 -1.576172 2.681889 11.569537 119.796436 -64.205144 3.217779 -1.872041 1.916528 67.250637 126.626134 -120.002244 2.656061 -1.528768 1.514597 79.538673 146.972721 -137.311992 2.020895 -1.154056 1.115153 -0.000000 0.000006 0.000004 9.109219 -0.517800 2.260118 -114.117018 -20.759834 -31.562243 3.699939 -0.000049 -0.000230 -188.359528 -36.169806 154.820772 2.850109 0.000175 0.000252 -259.964841 -26.554146 31.430471 2.774870 -0.000014 -0.000038 -0.000000 0.000002 -0.000002 9.533217 0.000305 0.000261 225.625641 -26.712426 301.117523 3.700096 0.000180 -0.000352 108.612179 -20.392156 28.106754 2.950009 0.000141 -0.000222 73.662047 0.090151 -0.065678 2.952868 -0.000031 0.000062 -0.000002 -0.000000 -0.000001 9.104294 -0.042829 -1.864890 212.713906 -29.976058 275.259028 3.150016 0.000246 -0.000107 97.553263 -5.501589 6.279692 2.949939 0.000171 -0.000164 68.570912 12.052069 -8.232364 2.644321 0.000031 0.000056 -0.000001 -0.000001 0.000002 8.077576 -0.486567 -3.806075 210.484997 -18.623228 297.517358 3.599919 0.000396 0.014593 128.844292 3.950446 -7.436720 2.099932 0.000248 0.007494 87.040051 15.364543 -14.328668 2.125495 -0.000014 0.007511 0.000000 0.000001 0.000003 -8.207786 -6.751667 -1.599560 -0.077001 -0.000003 0.000080 -0.000002 -44.370110 0.345938 0.153719 -0.000000 -0.000000 0.000000 -44.423679 -3.043532 -0.076700 0.000000 -0.000002 -0.000006 -8.728667 10.710559 -0.000009 -0.000000 -0.000000 -0.000001 -0.000679 9.278123 0.000000 -0.000000 -0.000000 8.207792 -6.751710 -1.599556 -0.074518 -0.000003 0.000081 -0.000002 -44.370014 0.346960 0.148822 0.000002 0.000000 -0.000001 -44.423664 -3.044403 -0.074314 0.000000 -0.000002 -0.000004 -8.728671 10.710558 0.000007 -0.000000 -0.000000 0.000000 -0.000680 9.278137 -0.000000 0.000000 -0.000001 
0.000006 104.270477 1.554256 0.000010 0.000003 -0.000113 -0.000005 10.181587 0.131522 0.000001 -0.000003 0.000084 -0.000000 9.893967 -1.470711 0.000001 0.000000 -0.000000 -0.000000 9.220802 -1.370642 0.000000 -0.000000 -0.000000 0.000001 16.740433 -2.049030 0.000000 -0.000000 -0.000000 0.000000 9.617859 1.685014 0.000000 0.000000 0.000000 0.000002 22.037384 7.501101 0.000000 -0.000000 0.000000 -4.569968 11.014880 -2.160881 0.000008 0.000001 -0.000038 -10.592878 -0.524752 -2.231914 69.986893 27.353869 -19.335326 -27.841530 -0.000002 0.000558 -54.310044 115.433817 78.147500 -28.328844 0.000006 0.000021 -0.000320 -0.000043 0.000007 -2.464418 -1.573814 2.682331 -45.356517 -160.396406 -3.980169 -3.215272 -1.872554 1.924630 151.933228 33.043349 16.166583 -2.654950 -1.527882 1.513080 146.797158 27.137803 -35.269929 -2.018831 -1.151999 1.108067 0.000000 -0.000004 0.000004 -9.108399 -0.517552 2.260124 100.494650 15.568894 -18.722409 -3.700054 0.000320 0.001527 97.913043 12.825049 -14.684591 -2.850091 0.000375 -0.000258 97.608888 10.432771 -11.908055 -2.772170 -0.000000 -0.000024 -0.000000 -0.000001 -0.000000 -9.532613 0.000264 0.000258 96.852164 17.296192 -19.620955 -3.700078 0.000338 0.003973 95.958981 12.088473 -13.299584 -2.950068 0.000346 -0.001785 98.645642 11.218140 -13.029890 -2.946642 -0.000015 -0.000159 0.000001 0.000000 0.000001 -9.103723 -0.042782 -1.864853 96.039898 19.996912 -22.121279 -3.379337 0.000307 -0.000792 96.211855 9.592819 -10.706858 -2.889754 0.000369 0.000655 102.632198 6.713216 -8.435659 -2.638778 0.000001 0.000940 0.000001 -0.000000 -0.000000 -8.076780 -0.486403 -3.806017 87.877788 21.493641 -20.578300 -3.600049 0.000281 -0.003520 90.202224 9.629630 -9.301901 -2.100007 0.000326 -0.005478 93.278705 4.798319 -4.851287 -2.115785 -0.000028 -0.003676 -0.000000 -0.000000 0.000001 4.570446 11.014691 -2.160851 -0.000018 0.000010 -0.000021 10.592493 -0.524539 -2.232384 52.920770 -57.304447 30.427830 27.841730 -0.000055 -0.000091 56.854563 -109.223529 74.617290 28.328829 -0.000027 0.000019 0.000020 -0.000089 -0.000002 2.466092 -1.576179 2.681885 8.900390 122.442137 -62.871884 3.217777 -1.872031 1.916533 64.721978 126.657566 -117.971874 2.656059 -1.528744 1.514612 76.464664 145.342191 -134.668354 2.020895 -1.154083 1.115135 -0.000001 0.000000 0.000001 9.109247 -0.517770 2.260111 -117.329276 -16.584439 -26.913778 3.699737 0.000119 -0.000179 -164.575881 -26.543558 239.743957 2.849931 -0.000001 0.000410 -186.040337 -39.976428 163.490085 2.774885 -0.000033 -0.000034 -0.000001 -0.000000 0.000001 9.533212 0.000313 0.000265 223.778813 -25.508556 301.212107 3.700098 0.000206 -0.000338 112.191075 -20.650290 30.329462 2.950018 0.000151 -0.000226 73.311863 -0.016058 0.013782 2.952852 -0.000014 0.000063 0.000004 0.000001 -0.000001 9.104296 -0.042845 -1.864904 210.955406 -29.381090 273.131998 3.150025 0.000251 -0.000106 96.870756 -5.358769 6.043925 2.949947 0.000139 -0.000149 65.187817 11.636407 -7.454481 2.644318 0.000014 0.000057 -0.000001 0.000001 -0.000000 8.077560 -0.486580 -3.806084 207.896369 -19.549622 290.209629 3.599922 0.000381 0.014593 127.214527 2.568147 -4.365245 2.099955 0.000240 0.007524 84.036639 13.813182 -12.188165 2.125485 0.000003 0.007515 0.000001 0.000000 -0.000002 -8.207786 -6.751667 -1.599560 -0.077001 -0.000003 0.000080 -0.000002 -44.370110 0.345938 0.153719 -0.000000 -0.000000 0.000000 -44.423679 -3.043532 -0.076700 0.000000 -0.000002 -0.000006 -8.728667 10.710559 -0.000009 -0.000000 -0.000000 -0.000001 -0.000679 9.278123 0.000000 -0.000000 -0.000000 8.207792 -6.751710 -1.599556 -0.074518 -0.000003 0.000081 -0.000002 -44.370014 0.346960 0.148822 0.000002 0.000000 -0.000001 -44.423664 -3.044403 -0.074314 0.000000 -0.000002 -0.000004 -8.728671 10.710558 0.000007 -0.000000 -0.000000 0.000000 -0.000680 9.278137 -0.000000 0.000000 -0.000001 
0.000006 104.270477 1.554256 0.000010 0.000003 -0.000113 -0.000005 10.181587 0.131522 0.000001 -0.000003 0.000084 -0.000000 9.893967 -1.470711 0.000001 0.000000 -0.000000 -0.000000 9.220802 -1.370642 0.000000 -0.000000 -0.000000 0.000001 16.740433 -2.049030 0.000000 -0.000000 -0.000000 0.000000 9.617859 1.685014 0.000000 0.000000 0.000000 0.000002 22.037384 7.501101 0.000000 -0.000000 0.000000 -4.569968 11.014880 -2.160881 0.000008 0.000001 -0.000038 -10.592876 -0.524764 -2.231905 69.838534 29.069975 -20.518751 -27.841534 0.000001 0.000557 -54.600693 114.866474 77.883814 -28.328814 0.000021 0.000026 -0.000321 -0.000046 0.000007 -2.464400 -1.573791 2.682328 -45.184034 -159.637872 -3.697795 -3.215263 -1.872537 1.924623 151.269265 33.521602 20.572287 -2.654953 -1.527869 1.513090 146.918271 27.014009 -36.347152 -2.018826 -1.152018 1.108058 -0.000008 0.000002 0.000002 -9.108380 -0.517558 2.260144 100.227726 15.613264 -18.688190 -3.700072 0.000319 0.001522 98.565784 13.152121 -15.230931 -2.850095 0.000370 -0.000252 98.223605 11.054380 -12.752603 -2.772149 0.000002 -0.000022 0.000001 -0.000001 0.000000 -9.532587 0.000264 0.000252 96.964856 16.830578 -19.135682 -3.700059 0.000337 0.003973 95.356080 11.994744 -13.058350 -2.950072 0.000333 -0.001783 97.991146 11.570849 -13.285960 -2.946619 0.000002 -0.000155 0.000000 0.000000 0.000001 -9.103710 -0.042764 -1.864867 96.134489 18.864255 -20.905189 -3.379327 0.000309 -0.000807 95.585875 8.701629 -9.609098 -2.889760 0.000357 0.000681 102.432279 6.649283 -8.326211 -2.638806 -0.000004 0.000939 0.000001 0.000000 -0.000001 -8.076767 -0.486392 -3.806016 87.972235 20.681388 -19.826692 -3.600044 0.000281 -0.003505 90.670618 8.546293 -8.286951 -2.100006 0.000330 -0.005488 93.633813 4.427877 -4.488079 -2.115781 -0.000040 -0.003678 0.000001 0.000000 -0.000004 4.570446 11.014691 -2.160851 -0.000018 0.000010 -0.000021 10.592487 -0.524544 -2.232379 52.848158 -57.602127 30.560821 27.841719 -0.000084 -0.000092 57.078139 -109.533182 75.191667 28.328831 -0.000028 0.000027 0.000022 -0.000090 -0.000003 2.466084 -1.576178 2.681881 12.265092 120.343780 -65.333819 3.217778 -1.872028 1.916521 63.288437 126.953163 -116.954900 2.656050 -1.528743 1.514608 78.476217 147.758275 -137.000563 2.020891 -1.154071 1.115150 0.000001 0.000000 0.000003 9.109200 -0.517785 2.260116 -118.574598 -24.004754 -39.375368 3.700095 0.000173 -0.000402 -240.796243 -27.420687 405.191601 2.850028 0.000202 0.000200 -95.758515 -169.716008 189.302477 2.774894 -0.000029 -0.000025 0.000002 -0.000001 0.000000 9.533274 0.000306 0.000267 231.712091 -23.907522 312.808075 3.700108 0.000178 -0.000338 111.852079 -19.880126 29.047008 2.950025 0.000163 -0.000228 76.371863 -1.217079 0.959255 2.952861 -0.000015 0.000061 -0.000000 0.000000 -0.000001 9.104317 -0.042786 -1.864875 217.130908 -26.708195 289.494727 3.150040 0.000242 -0.000108 100.160647 -6.503790 7.771469 2.949946 0.000165 -0.000161 67.459593 10.212739 -6.827964 2.644322 0.000045 0.000062 0.000001 -0.000000 0.000001 8.077609 -0.486544 -3.806074 211.707451 -17.011802 303.930769 3.599930 0.000381 0.014595 123.353230 3.128030 -5.065042 2.099944 0.000221 0.007512 81.660970 13.505791 -11.424467 2.125501 0.000018 0.007517 0.000003 0.000006 0.000000 -8.207786 -6.751667 -1.599560 -0.077001 -0.000003 0.000080 -0.000002 -44.370110 0.345938 0.153719 -0.000000 -0.000000 0.000000 -44.423679 -3.043532 -0.076700 0.000000 -0.000002 -0.000006 -8.728667 10.710559 -0.000009 -0.000000 -0.000000 -0.000001 -0.000679 9.278123 0.000000 -0.000000 -0.000000 8.207792 -6.751710 -1.599556 -0.074518 -0.000003 0.000081 -0.000002 -44.370014 0.346960 0.148822 0.000002 0.000000 -0.000001 -44.423664 -3.044403 -0.074314 0.000000 -0.000002 -0.000004 -8.728671 10.710558 0.000007 -0.000000 -0.000000 0.000000 -0.000680 9.278137 -0.000000 0.000000 -0.000001 
